<svg xmlns="http://www.w3.org/2000/svg" x="0px" y="0px"
width="24" height="24"
viewBox="0 0 172 172"
style=" fill:#000000;"><g fill="none" fill-rule="nonzero" stroke="none" stroke-width="1" stroke-linecap="butt" stroke-linejoin="miter" stroke-miterlimit="10" stroke-dasharray="" stroke-dashoffset="0" font-family="none" font-weight="none" font-size="none" text-anchor="none" style="mix-blend-mode: normal"><path d="M0,172v-172h172v172z" fill="none"></path><g fill="#666666"><path d="M86,14.33333c-39.5815,0 -71.66667,32.08517 -71.66667,71.66667c0,39.5815 32.08517,71.66667 71.66667,71.66667c39.5815,0 71.66667,-32.08517 71.66667,-71.66667c0,-39.5815 -32.08517,-71.66667 -71.66667,-71.66667zM121.23145,46.82129c2.61239,-0.30355 4.86068,2.42849 3.62532,5.08105l-20.9541,45.04362c-1.42617,3.06733 -3.88937,5.53054 -6.9567,6.9567l-45.04362,20.9541c-3.0315,1.41183 -6.17095,-1.72761 -4.75911,-4.75912l20.9541,-45.04362c1.42617,-3.06017 3.88937,-5.53054 6.9567,-6.9567l45.04362,-20.9541c0.37894,-0.17648 0.76059,-0.27858 1.1338,-0.32194zM86,78.11947c-4.37167,0 -7.88053,3.50886 -7.88053,7.88053c0,4.37167 3.50886,7.88053 7.88053,7.88053c4.37167,0 7.88053,-3.50886 7.88053,-7.88053c0,-4.37167 -3.50886,-7.88053 -7.88053,-7.88053z"></path></g></g></svg>
