<svg xmlns="http://www.w3.org/2000/svg" x="0px" y="0px"
width="24" height="24"
viewBox="0 0 172 172"
style=" fill:#000000;"><g fill="none" fill-rule="nonzero" stroke="none" stroke-width="1" stroke-linecap="butt" stroke-linejoin="miter" stroke-miterlimit="10" stroke-dasharray="" stroke-dashoffset="0" font-family="none" font-weight="none" font-size="none" text-anchor="none" style="mix-blend-mode: normal"><path d="M0,172v-172h172v172z" fill="#ffffff"></path><g fill="#e53935"><path d="M168.1945,42.49117l0.215,1.40467c-3.51167,-12.45567 -14.2545,-14.73467 -14.97117,-15.17183c-17.44367,-4.73717 -116.80233,-4.91633 -134.72617,0c-12.29083,3.56183 -14.54833,14.45517 -14.97117,15.17183c-5.0095,26.1655 -5.04533,57.60567 0.22217,85.62017l-0.22217,-1.419c3.51167,12.45567 14.2545,14.73467 14.97117,15.17183c17.68017,4.816 116.78083,4.83033 134.72617,0c12.29083,-3.55467 14.54833,-14.45517 14.97117,-15.17183c4.67983,-24.897 4.988,-57.35483 -0.215,-85.60583zM68.85733,112.1655v-52.2665l44.90633,26.17267z"></path></g></g></svg>
