<svg xmlns="http://www.w3.org/2000/svg" x="0px" y="0px"
width="64" height="64"
viewBox="0 0 172 172"
style=" fill:#000000;"><g fill="#666666" fill-rule="nonzero" stroke="none" stroke-width="1" stroke-linecap="butt" stroke-linejoin="miter" stroke-miterlimit="10" stroke-dasharray="" stroke-dashoffset="0" font-family="none" font-weight="none" font-size="none" text-anchor="none" style="mix-blend-mode: normal"><g transform="scale(1.7551,1.7551)"><path d="M67,47h-16v-16h16zM71,31h15v16h-15zM51,27v-16h16v16zM47,27h-16v-16h16zM47,31v16h-16v-16zM27,47h-15v-16h15zM12,51h15v16h-15zM31,51h16v16h-16zM47,71v16h-16v-16zM51,71h16v16h-16zM51,67v-16h16v16zM71,51h15v16h-15zM86,27h-15v-16h15zM27,11v16h-15v-16zM12,71h15v16h-15zM71,87v-16h15v16z"></path></g></g></svg>
