<svg xmlns="http://www.w3.org/2000/svg" x="0px" y="0px"
width="24" height="24"
viewBox="0 0 172 172"
style=" fill:#000000;"><g fill="none" fill-rule="nonzero" stroke="none" stroke-width="1" stroke-linecap="butt" stroke-linejoin="miter" stroke-miterlimit="10" stroke-dasharray="" stroke-dashoffset="0" font-family="none" font-weight="none" font-size="none" text-anchor="none" style="mix-blend-mode: normal"><path d="M0,172v-172h172v172z" fill="none"></path><g fill="#666666"><path d="M87.0918,14.34733c-20.7287,-0.31018 -39.44307,8.27342 -52.71419,22.12988l-13.92741,-13.92741c-1.3975,-1.3975 -3.66956,-1.3975 -5.06706,0c-0.70233,0.69517 -1.0498,1.6162 -1.0498,2.53353v32.25c0,3.95804 3.20863,7.16667 7.16667,7.16667h32.25c0.91733,0 1.8312,-0.35464 2.53353,-1.0498c1.3975,-1.3975 1.3975,-3.66956 0,-5.06706l-11.72982,-11.72982c12.98074,-13.6782 32.5014,-21.07502 53.56803,-16.72689c22.0375,4.55083 39.70647,22.38923 44.06381,44.46972c7.23833,36.679 -20.77505,68.93718 -56.18555,68.93718c-29.5195,0 -53.89423,-22.42999 -56.9974,-51.13249c-0.387,-3.56183 -3.47135,-6.20084 -7.05469,-6.20084c-4.3,0 -7.64683,3.76317 -7.16667,8.03451c4.00617,35.74733 34.42508,63.63216 71.21875,63.63216c43.97467,0 78.82807,-39.82047 70.39291,-85.30013c-5.33917,-28.8315 -28.70363,-51.86808 -57.58529,-56.91341c-3.95869,-0.69069 -7.87124,-1.04826 -11.71582,-1.10579zM86,43c-3.956,0 -7.16667,3.21067 -7.16667,7.16667v35.83333c0,1.89917 0.75228,3.72689 2.09961,5.06706l16.43294,16.43294c2.795,2.795 7.33911,2.795 10.13411,0c2.795,-2.795 2.795,-7.33911 0,-10.13411l-14.33333,-14.33333v-32.86589c0,-3.956 -3.21067,-7.16667 -7.16667,-7.16667z"></path></g></g></svg>
