<svg xmlns="http://www.w3.org/2000/svg" x="0px" y="0px"
width="32" height="32"
viewBox="0 0 172 172"
style=" fill:#000000;"><g fill="none" fill-rule="nonzero" stroke="none" stroke-width="1" stroke-linecap="butt" stroke-linejoin="miter" stroke-miterlimit="10" stroke-dasharray="" stroke-dashoffset="0" font-family="none" font-weight="none" font-size="none" text-anchor="none" style="mix-blend-mode: normal"><path d="M0,172v-172h172v172z" fill="none"></path><g fill="#666666"><path d="M95.88916,2.6875c-6.56189,-0.02832 -12.14801,4.76841 -13.11206,11.25916c-0.3225,2.17687 -0.69854,5.3771 -1.12854,8.87085c-0.645,5.53625 -1.3996,11.825 -2.1521,15.45312c-0.76373,3.79113 -2.67939,7.25398 -5.48523,9.91541l-11.79455,11.15417c-3.4818,3.32435 -8.1144,5.17326 -12.92835,5.15979h-6.36707v91.375h7.52185c4.62177,-0.01652 8.99735,2.08136 11.87854,5.69519c3.89101,4.90361 9.81271,7.75616 16.07251,7.74231h52.4325c8.57702,0.01502 16.07574,-5.77964 18.22461,-14.08313l16.87561,-60.46875c0,-0.02688 -0.00063,-0.05249 0.02625,-0.05249c1.87454,-7.24595 0.27639,-14.95157 -4.3252,-20.85437c-4.5709,-5.91839 -11.63373,-9.37512 -19.11169,-9.35376h-32.00854c2.15,-14.75437 2.39481,-35.55751 -1.69019,-51.65564c-1.48039,-5.94328 -6.80355,-10.1253 -12.92834,-10.15686zM7.97852,56.4375c-1.48427,0 -2.6875,1.20323 -2.6875,2.6875v102.125c0,1.48427 1.20323,2.6875 2.6875,2.6875h26.875c1.48427,0 2.6875,-1.20323 2.6875,-2.6875v-102.125c0,-1.48427 -1.20323,-2.6875 -2.6875,-2.6875zM21.08008,64.50525c2.19499,-0.09154 4.33228,0.71659 5.91758,2.2375c1.58531,1.5209 2.48133,3.62286 2.48085,5.81975c0,4.4528 -3.6097,8.0625 -8.0625,8.0625c-4.40641,0.02692 -8.0182,-3.48882 -8.11001,-7.89436c-0.09181,-4.40554 3.37036,-8.06871 7.77408,-8.22539zM21.41602,69.875c-1.48427,0 -2.6875,1.20323 -2.6875,2.6875c0,1.48427 1.20323,2.6875 2.6875,2.6875c1.48427,0 2.6875,-1.20323 2.6875,-2.6875c0,-1.48427 -1.20323,-2.6875 -2.6875,-2.6875z"></path></g></g></svg>
