<svg xmlns="http://www.w3.org/2000/svg" x="0px" y="0px"
width="24" height="24"
viewBox="0 0 172 172"
style=" fill:#000000;"><g fill="none" fill-rule="nonzero" stroke="none" stroke-width="1" stroke-linecap="butt" stroke-linejoin="miter" stroke-miterlimit="10" stroke-dasharray="" stroke-dashoffset="0" font-family="none" font-weight="none" font-size="none" text-anchor="none" style="mix-blend-mode: normal"><path d="M0,172v-172h172v172z" fill="none"></path><g fill="#666666"><path d="M21.5,35.83333c-3.74259,0 -7.55804,1.37119 -10.26009,4.07324c-2.70205,2.70205 -4.07324,6.5175 -4.07324,10.26009v71.66667c0,3.74259 1.37119,7.55804 4.07324,10.26009c2.70205,2.70205 6.5175,4.07324 10.26009,4.07324h93.16667c3.74259,0 7.55804,-1.37119 10.26009,-4.07324c2.70205,-2.70206 4.07324,-6.5175 4.07324,-10.26009v-20.92611l35.83333,28.66667v-87.14779l-35.83333,28.66667v-20.92611c0,-3.74259 -1.37119,-7.55804 -4.07324,-10.26009c-2.70206,-2.70205 -6.5175,-4.07324 -10.26009,-4.07324z"></path></g></g></svg>
