<svg xmlns="http://www.w3.org/2000/svg" x="0px" y="0px"
width="24" height="24"
viewBox="0 0 172 172"
style=" fill:#000000;"><g fill="none" fill-rule="nonzero" stroke="none" stroke-width="1" stroke-linecap="butt" stroke-linejoin="miter" stroke-miterlimit="10" stroke-dasharray="" stroke-dashoffset="0" font-family="none" font-weight="none" font-size="none" text-anchor="none" style="mix-blend-mode: normal"><path d="M0,172v-172h172v172z" fill="none"></path><g fill="#666666"><path d="M86,14.33333c-39.5815,0 -71.66667,32.08517 -71.66667,71.66667c0,39.5815 32.08517,71.66667 71.66667,71.66667c39.5815,0 71.66667,-32.08517 71.66667,-71.66667c0,-39.5815 -32.08517,-71.66667 -71.66667,-71.66667zM104.533,114.66667l-23.59983,-23.59983c-1.34733,-1.34733 -2.09983,-3.16767 -2.09983,-5.06683v-35.83333c0,-3.956 3.21067,-7.16667 7.16667,-7.16667v0c3.956,0 7.16667,3.21067 7.16667,7.16667v32.86633l21.5,21.5c2.795,2.795 2.795,7.33867 0,10.13367v0c-2.795,2.795 -7.33867,2.795 -10.13367,0z"></path></g></g></svg>
